<svg xmlns="http://www.w3.org/2000/svg" viewBox="0 0 356.78 52.49"><defs><style>.cls-1{fill:#fe1148;}.cls-2{fill:#fff;}</style></defs><title>Asset 15</title><g id="Layer_2" data-name="Layer 2"><g id="Layer_1-2" data-name="Layer 1"><rect class="cls-1" x="2.15" y="23.67" width="25.4" height="25.4" rx="7.5" transform="translate(-21.36 21.16) rotate(-45)"/><rect class="cls-1" x="23.67" y="2.15" width="25.4" height="25.4" rx="7.5" transform="translate(0.15 30.07) rotate(-45)"/><rect class="cls-1" x="45.18" y="23.67" width="25.4" height="25.4" rx="7.5" transform="translate(-8.76 51.58) rotate(-45)"/><rect class="cls-1" x="66.69" y="2.15" width="25.4" height="25.4" rx="7.5" transform="translate(12.75 60.49) rotate(-45)"/><rect class="cls-1" x="88.21" y="23.67" width="25.4" height="25.4" rx="7.5" transform="translate(3.84 82) rotate(-45)"/><path class="cls-2" d="M163,52.14l0-18.18-8.92,15h-3.16L142,34.35V52.14h-6.58V21.85h5.8l11.34,18.82L163.7,21.85h5.75l.09,30.29Z"/><path class="cls-2" d="M176.6,24.53a3.67,3.67,0,0,1,0-5.37,4.25,4.25,0,0,1,3-1.08,4.37,4.37,0,0,1,3,1,3.33,3.33,0,0,1,1.17,2.6,3.68,3.68,0,0,1-1.17,2.79,4.74,4.74,0,0,1-6.05,0Zm-.35,4.33H183V52.14h-6.75Z"/><path class="cls-2" d="M210.42,31.11q2.66,2.6,2.66,7.7V52.14h-6.75V39.85a6.1,6.1,0,0,0-1.21-4.13,4.46,4.46,0,0,0-3.51-1.37,5.39,5.39,0,0,0-4.07,1.58,6.56,6.56,0,0,0-1.51,4.7V52.14h-6.75V28.86h6.45v2.72a9,9,0,0,1,3.33-2.27,11.64,11.64,0,0,1,4.37-.8A9.61,9.61,0,0,1,210.42,31.11Z"/><path class="cls-2" d="M242.56,20V52.14h-6.45V49.46c-1.67,2-4.1,3-7.27,3a12.09,12.09,0,0,1-6-1.47,10.49,10.49,0,0,1-4.18-4.2,12.79,12.79,0,0,1-1.51-6.32,12.82,12.82,0,0,1,1.51-6.32,10.49,10.49,0,0,1,4.18-4.2,12.09,12.09,0,0,1,6-1.47,8.89,8.89,0,0,1,7,2.81V20ZM234.25,45.2a6.48,6.48,0,0,0,1.69-4.7,6.48,6.48,0,0,0-1.69-4.7A5.68,5.68,0,0,0,230,34.05a5.74,5.74,0,0,0-4.29,1.75A6.52,6.52,0,0,0,224,40.5a6.52,6.52,0,0,0,1.68,4.7A5.74,5.74,0,0,0,230,47,5.68,5.68,0,0,0,234.25,45.2Z"/><path class="cls-2" d="M253.36,51a11.42,11.42,0,0,1-4.63-4.26,12.31,12.31,0,0,1,0-12.38,11.42,11.42,0,0,1,4.63-4.26A14.21,14.21,0,0,1,260,28.51a12.88,12.88,0,0,1,6.43,1.54,9.15,9.15,0,0,1,4,4.39l-5.24,2.81a5.73,5.73,0,0,0-5.24-3.2,5.93,5.93,0,0,0-4.37,1.73,6.41,6.41,0,0,0-1.73,4.72,6.41,6.41,0,0,0,1.73,4.72A5.93,5.93,0,0,0,260,47a5.67,5.67,0,0,0,5.24-3.2l5.24,2.85a9.33,9.33,0,0,1-4,4.33A12.78,12.78,0,0,1,260,52.49,14.21,14.21,0,0,1,253.36,51Z"/><path class="cls-2" d="M297.83,28.86V52.14h-6.41V49.37a9,9,0,0,1-3.2,2.32,10.12,10.12,0,0,1-4,.8,9.94,9.94,0,0,1-7.28-2.64q-2.69-2.64-2.68-7.84V28.86H281V41c0,3.75,1.58,5.63,4.72,5.63a5.1,5.1,0,0,0,3.9-1.58,6.69,6.69,0,0,0,1.47-4.7V28.86Z"/><path class="cls-2" d="M323.18,30a10.79,10.79,0,0,1,4.17,4.2,12.72,12.72,0,0,1,1.52,6.3,12.69,12.69,0,0,1-1.52,6.3,10.79,10.79,0,0,1-4.17,4.2,12,12,0,0,1-5.91,1.49c-3.21,0-5.64-1-7.32-3v2.68H303.5V20h6.76V31.32a9,9,0,0,1,7-2.81A12,12,0,0,1,323.18,30Zm-2.82,15.2A6.56,6.56,0,0,0,322,40.5a6.56,6.56,0,0,0-1.67-4.7,6.06,6.06,0,0,0-8.52,0,6.51,6.51,0,0,0-1.67,4.7,6.51,6.51,0,0,0,1.67,4.7,6.06,6.06,0,0,0,8.52,0Z"/><path class="cls-2" d="M356.65,42.4H339a5.47,5.47,0,0,0,2.25,3.42,7.47,7.47,0,0,0,4.42,1.26,9,9,0,0,0,3.22-.54,7.79,7.79,0,0,0,2.62-1.71l3.59,3.89q-3.28,3.77-9.61,3.77a15.11,15.11,0,0,1-7-1.54,11.25,11.25,0,0,1-4.68-4.26,11.81,11.81,0,0,1-1.64-6.19,11.94,11.94,0,0,1,1.62-6.17,11.34,11.34,0,0,1,4.46-4.28A13.79,13.79,0,0,1,350.85,30a10.83,10.83,0,0,1,4.35,4.22,12.64,12.64,0,0,1,1.58,6.39C356.78,40.67,356.73,41.28,356.65,42.4Zm-15.8-7.48a5.5,5.5,0,0,0-1.9,3.55h11.47a5.61,5.61,0,0,0-1.91-3.53,5.7,5.7,0,0,0-3.81-1.32A5.79,5.79,0,0,0,340.85,34.92Z"/></g></g></svg>